<svg width="24" height="22" viewBox="0 0 24 22" fill="none" xmlns="http://www.w3.org/2000/svg">
<path d="M22.4616 3.14286H1.53848C0.688594 3.14286 0 2.43951 0 1.57145C0 0.703397 0.688594 0 1.53848 0H22.4616C23.3114 0 24 0.703349 24 1.57145C24 2.43956 23.3114 3.14286 22.4616 3.14286Z" fill="url(#paint0_linear)"/>
<path d="M13.8462 12.5715H1.53848C0.688594 12.5715 0 11.8681 0 11C0 10.132 0.688594 9.42859 1.53848 9.42859H13.8462C14.696 9.42859 15.3847 10.1319 15.3847 11C15.3847 11.8681 14.696 12.5715 13.8462 12.5715Z" fill="url(#paint1_linear)"/>
<path d="M22.4619 12.5714H20.0004C19.1506 12.5714 18.4619 11.8681 18.4619 11C18.4619 10.1319 19.1505 9.42853 20.0004 9.42853H22.4619C23.3118 9.42853 24.0004 10.1319 24.0004 11C24.0004 11.8681 23.3118 12.5714 22.4619 12.5714Z" fill="#49B4FF"/>
<path d="M22.4616 22H1.53848C0.688594 22 0 21.2966 0 20.4286C0 19.5605 0.688594 18.8571 1.53848 18.8571H22.4616C23.3114 18.8571 24 19.5605 24 20.4286C24 21.2966 23.3114 22 22.4616 22Z" fill="url(#paint2_linear)"/>
<defs>
<linearGradient id="paint0_linear" x1="2.05121e-08" y1="1.89153" x2="24" y2="1.89153" gradientUnits="userSpaceOnUse">
<stop stop-color="#0068F3"/>
<stop offset="1" stop-color="#238FFF"/>
</linearGradient>
<linearGradient id="paint1_linear" x1="1.31488e-08" y1="11.3201" x2="15.3847" y2="11.3201" gradientUnits="userSpaceOnUse">
<stop stop-color="#0068F3"/>
<stop offset="1" stop-color="#238FFF"/>
</linearGradient>
<linearGradient id="paint2_linear" x1="2.05121e-08" y1="20.7487" x2="24" y2="20.7487" gradientUnits="userSpaceOnUse">
<stop stop-color="#0068F3"/>
<stop offset="1" stop-color="#238FFF"/>
</linearGradient>
</defs>
</svg>
